<?xml version="1.0" standalone="no"?>
<!DOCTYPE svg PUBLIC "-//W3C//DTD SVG 20010904//EN"
 "http://www.w3.org/TR/2001/REC-SVG-20010904/DTD/svg10.dtd">
<svg version="1.0" xmlns="http://www.w3.org/2000/svg"
 width="700.000000pt" height="700.000000pt" viewBox="0 0 700.000000 700.000000"
 preserveAspectRatio="xMidYMid meet">
<metadata>
Created by potrace 1.14, written by Peter Selinger 2001-2017
</metadata>
<g transform="translate(0.000000,700.000000) scale(0.100000,-0.100000)"
fill="#000000" stroke="none">
<path d="M1779 6996 c-2 -2 -56 -6 -119 -10 -63 -3 -126 -8 -140 -11 -14 -2
-52 -6 -85 -10 -94 -9 -294 -53 -386 -84 -424 -143 -762 -477 -927 -916 -17
-44 -62 -227 -68 -277 -3 -24 -7 -49 -9 -56 -3 -7 -7 -40 -11 -75 -3 -34 -7
-73 -10 -87 -15 -99 -19 -478 -19 -2060 0 -1574 3 -1923 20 -2055 11 -89 17
-134 22 -165 4 -32 28 -148 39 -192 2 -10 6 -26 8 -36 49 -220 247 -539 431
-697 32 -28 63 -55 69 -60 16 -15 146 -108 171 -121 11 -6 51 -28 88 -48 l68
-36 2660 0 2660 0 47 21 c70 32 199 114 273 174 169 136 300 295 398 480 l41
77 0 2664 0 2665 -31 62 c-150 297 -423 556 -729 692 -160 70 -354 116 -595
140 -33 3 -80 9 -105 12 -48 6 -3754 15 -3761 9z"/>
</g>
</svg>
