<svg id="App_Icon_Kit_B" data-name="App Icon Kit B" xmlns="http://www.w3.org/2000/svg" xmlns:xlink="http://www.w3.org/1999/xlink" viewBox="0 0 58 58"><defs><style>.cls-1{fill:#29abe4;}.cls-2{fill:#f6ee28;}.cls-3{fill:none;stroke:#f6ee28;stroke-linecap:round;stroke-miterlimit:10;stroke-width:19.55px;}.cls-4{fill:#fff;}</style><symbol id="Icon" data-name="Icon" viewBox="0 0 1024 1024"><path id="App_Icon_Placeholder" data-name="App Icon Placeholder" class="cls-1" d="M357,0H667C769.8,0,821.18,0,876.52,17.49a217.47,217.47,0,0,1,130,130C1024,202.83,1024,254.22,1024,357V667c0,102.8,0,154.19-17.5,209.53a217.43,217.43,0,0,1-130,130C821.18,1024,769.8,1024,667,1024H357c-102.79,0-154.17,0-209.51-17.5a217.43,217.43,0,0,1-130-130C0,821.18,0,769.79,0,667V357C0,254.22,0,202.83,17.5,147.48a217.47,217.47,0,0,1,130-130C202.82,0,254.2,0,357,0h0"/><circle class="cls-2" cx="421.22" cy="416" r="131.36"/><line class="cls-3" x1="422" y1="183" x2="422" y2="258.84"/><line class="cls-3" x1="586.76" y1="251.24" x2="533.13" y2="304.87"/><line class="cls-3" x1="655" y1="416" x2="579.16" y2="416"/><line class="cls-3" x1="586.76" y1="580.76" x2="533.13" y2="527.13"/><line class="cls-3" x1="422" y1="649" x2="422" y2="573.16"/><line class="cls-3" x1="257.24" y1="580.76" x2="310.87" y2="527.13"/><line class="cls-3" x1="189" y1="416" x2="264.84" y2="416"/><line class="cls-3" x1="257.24" y1="251.24" x2="310.87" y2="304.87"/><path class="cls-4" d="M891.68,645.86a163.74,163.74,0,0,1-245.5,141.83A163.83,163.83,0,0,1,472,806.24a100.63,100.63,0,0,1-151.62-18.7c-2.1.08-4.23.12-6.36.12a163.71,163.71,0,1,1,33.36-324A163.69,163.69,0,0,1,490.24,380a166,166,0,0,1,21.52,1.4A163.71,163.71,0,0,1,792.63,495.41,163.74,163.74,0,0,1,891.68,645.86Z"/></symbol></defs><g id="App_Icon_and_Badge" data-name="App Icon and Badge"><g id="Spotlight_Icon" data-name="Spotlight Icon"><g id="_58x58" data-name="58x58"><use width="1024" height="1024" transform="scale(0.06)" xlink:href="#Icon"/></g></g></g></svg>